<svg width="560" height="560" viewBox="0 0 560 560" fill="none" xmlns="http://www.w3.org/2000/svg">
<path fill-rule="evenodd" clip-rule="evenodd" d="M428.334 540.114L309.334 316.114L395.88 270.136L514.88 494.137L428.334 540.114Z" stroke="white" stroke-width="6"/>
<path fill-rule="evenodd" clip-rule="evenodd" d="M184.607 20.125H341.215C383.915 20.125 424.866 37.0874 455.06 67.2808C517.934 130.155 517.934 232.095 455.06 294.969L451.954 298.075C425.403 324.625 389.948 340.224 352.607 341.962V342.125H184.607V20.125ZM282.607 244.125H345.607C359.504 244.125 372.831 238.605 382.658 228.778L385.763 225.673C410.366 201.07 410.366 161.18 385.763 136.577C373.948 124.762 357.924 118.125 341.215 118.125H282.607V244.125Z" stroke="white" stroke-width="6"/>
<path fill-rule="evenodd" clip-rule="evenodd" d="M282.607 181.125V406C282.607 492.844 184.974 543.859 113.684 494.265L44.625 446.224L100.589 365.776L169.648 413.816C175.961 418.208 184.607 413.691 184.607 406V181.125H282.607Z" stroke="white" stroke-width="6"/>
</svg>
