<?xml version="1.0" standalone="no"?>
<!DOCTYPE svg PUBLIC "-//W3C//DTD SVG 20010904//EN"
 "http://www.w3.org/TR/2001/REC-SVG-20010904/DTD/svg10.dtd">
<svg version="1.0" xmlns="http://www.w3.org/2000/svg"
 width="512.000000pt" height="512.000000pt" viewBox="0 0 512.000000 512.000000"
 preserveAspectRatio="xMidYMid meet">
<metadata>
Created by potrace 1.11, written by Peter Selinger 2001-2013
</metadata>
<g transform="translate(0.000000,512.000000) scale(0.100000,-0.100000)"
fill="#000000" stroke="none">
<path d="M1696 4391 c-2 -3 -2 -618 -2 -1366 1 -766 -2 -1369 -7 -1381 -14
-32 -47 -47 -80 -35 -14 6 -82 49 -149 96 -68 46 -130 90 -138 95 -8 6 -60 42
-114 80 -55 39 -102 70 -105 70 -5 -1 -94 -126 -275 -390 -32 -47 -72 -104
-89 -128 l-31 -43 26 -22 c15 -12 55 -41 90 -65 139 -95 394 -272 404 -281 5
-4 39 -22 75 -39 276 -131 603 -82 840 126 95 84 195 244 215 345 2 10 6 27 9
37 14 45 17 103 19 357 l1 273 145 0 145 0 38 -73 c20 -39 60 -115 88 -167 28
-52 78 -147 111 -210 33 -63 73 -137 88 -165 15 -27 48 -89 74 -138 66 -124
133 -251 176 -332 21 -38 63 -119 95 -180 76 -145 71 -139 109 -116 17 10 76
42 131 71 55 29 132 70 170 90 39 21 111 59 160 85 50 26 95 52 101 57 9 6 -4
38 -43 111 -30 56 -87 163 -125 237 -39 74 -74 140 -78 145 -4 6 -36 64 -70
130 -35 66 -75 143 -90 170 -15 28 -51 95 -80 150 -29 55 -75 142 -103 194
-32 61 -46 96 -39 99 28 9 135 96 204 164 170 169 271 352 324 585 19 82 25
302 12 398 -57 409 -364 780 -754 908 -187 62 -163 60 -847 62 -345 2 -629 0
-631 -4z m1213 -700 c240 -68 379 -297 324 -535 -34 -149 -169 -294 -308 -331
-16 -5 -145 -9 -285 -10 l-255 -2 0 441 c0 243 3 443 7 446 15 11 473 3 517
-9z"/>
</g>
</svg>
