<svg width="480" height="2400" viewBox="0 0 480 2400" fill="none" xmlns="http://www.w3.org/2000/svg">
<path d="M368.385 458.898L269.2 272.196L338.083 235.602L437.268 422.304L368.385 458.898Z" stroke="white" stroke-width="6"/>
<path d="M299.234 290.247V290.25H161.234V20.25H292.47C328.274 20.25 362.612 34.4732 387.929 59.7906C440.65 112.511 440.65 197.989 387.929 250.709L385.267 253.371C363.039 275.599 333.356 288.658 302.095 290.114L299.234 290.247ZM239.234 209.25V212.25H242.234H296.234C308.941 212.25 321.128 207.202 330.113 198.217L332.775 195.555C355.035 173.295 355.035 137.205 332.775 114.945C322.085 104.255 307.587 98.25 292.47 98.25H242.234H239.234V101.25V209.25Z" stroke="white" stroke-width="6"/>
<path d="M239.235 348C239.235 420.015 158.274 462.318 99.1562 421.193L42.4259 381.729L86.9689 317.698L143.699 357.162C151.1 362.311 161.235 357.015 161.235 348V158.25H239.235V348Z" stroke="white" stroke-width="6"/>
<path fill-rule="evenodd" clip-rule="evenodd" d="M367.144 942.954L265.144 750.954L339.325 711.545L441.325 903.545L367.144 942.954Z" fill="#E8322F"/>
<path fill-rule="evenodd" clip-rule="evenodd" d="M158.234 497.25H292.47C329.07 497.25 364.171 511.789 390.051 537.669C443.943 591.562 443.943 678.938 390.051 732.831L387.389 735.493C364.631 758.25 334.241 771.62 302.234 773.11V773.25H158.234V497.25ZM242.234 689.25H296.234C308.146 689.25 319.569 684.518 327.992 676.096L330.654 673.434C351.742 652.345 351.742 618.155 330.654 597.066C320.527 586.939 306.792 581.25 292.47 581.25H242.234V689.25Z" fill="#53578F"/>
<path fill-rule="evenodd" clip-rule="evenodd" d="M242.235 635.25V828C242.235 902.438 158.549 946.165 97.443 903.656L38.25 862.478L86.2194 793.522L145.412 834.7C150.824 838.464 158.235 834.592 158.235 828V635.25H242.235Z" fill="#F9AE1D"/>
<path fill-rule="evenodd" clip-rule="evenodd" d="M367.144 1422.95L265.144 1230.95L339.325 1191.55L441.325 1383.55L367.144 1422.95Z" fill="#53578F"/>
<path fill-rule="evenodd" clip-rule="evenodd" d="M158.234 977.25H292.47C329.07 977.25 364.171 991.789 390.051 1017.67C443.943 1071.56 443.943 1158.94 390.051 1212.83L387.389 1215.49C364.631 1238.25 334.241 1251.62 302.234 1253.11V1253.25H158.234V977.25ZM242.234 1169.25H296.234C308.146 1169.25 319.569 1164.52 327.992 1156.1L330.654 1153.43C351.742 1132.35 351.742 1098.15 330.654 1077.07C320.527 1066.94 306.792 1061.25 292.47 1061.25H242.234V1169.25Z" fill="#F9AE1D"/>
<path fill-rule="evenodd" clip-rule="evenodd" d="M242.235 1115.25V1308C242.235 1382.44 158.549 1426.16 97.443 1383.66L38.25 1342.48L86.2194 1273.52L145.412 1314.7C150.824 1318.46 158.235 1314.59 158.235 1308V1115.25H242.235Z" fill="#7ECACA"/>
<path fill-rule="evenodd" clip-rule="evenodd" d="M367.144 1902.95L265.144 1710.95L339.325 1671.55L441.325 1863.55L367.144 1902.95Z" fill="#E8322F"/>
<path fill-rule="evenodd" clip-rule="evenodd" d="M158.234 1457.25H292.47C329.07 1457.25 364.171 1471.79 390.051 1497.67C443.943 1551.56 443.943 1638.94 390.051 1692.83L387.389 1695.49C364.631 1718.25 334.241 1731.62 302.234 1733.11V1733.25H158.234V1457.25ZM242.234 1649.25H296.234C308.146 1649.25 319.569 1644.52 327.992 1636.1L330.654 1633.43C351.742 1612.35 351.742 1578.15 330.654 1557.07C320.527 1546.94 306.792 1541.25 292.47 1541.25H242.234V1649.25Z" fill="#E8322F"/>
<path fill-rule="evenodd" clip-rule="evenodd" d="M242.235 1595.25V1788C242.235 1862.44 158.549 1906.16 97.443 1863.66L38.25 1822.48L86.2194 1753.52L145.412 1794.7C150.824 1798.46 158.235 1794.59 158.235 1788V1595.25H242.235Z" fill="#7ECACA"/>
<path fill-rule="evenodd" clip-rule="evenodd" d="M367.144 2382.95L265.144 2190.95L339.325 2151.55L441.325 2343.55L367.144 2382.95Z" fill="#F9AE1D"/>
<path fill-rule="evenodd" clip-rule="evenodd" d="M158.234 1937.25H292.47C329.07 1937.25 364.171 1951.79 390.051 1977.67C443.943 2031.56 443.943 2118.94 390.051 2172.83L387.389 2175.49C364.631 2198.25 334.241 2211.62 302.234 2213.11V2213.25H158.234V1937.25ZM242.234 2129.25H296.234C308.146 2129.25 319.569 2124.52 327.992 2116.1L330.654 2113.43C351.742 2092.35 351.742 2058.15 330.654 2037.07C320.527 2026.94 306.792 2021.25 292.47 2021.25H242.234V2129.25Z" fill="#7ECACA"/>
<path fill-rule="evenodd" clip-rule="evenodd" d="M242.235 2075.25V2268C242.235 2342.44 158.549 2386.16 97.443 2343.66L38.25 2302.48L86.2194 2233.52L145.412 2274.7C150.824 2278.46 158.235 2274.59 158.235 2268V2075.25H242.235Z" fill="#E8322F"/>
</svg>
